<?xml version="1.0" ?><svg height="32px" version="1.1" viewBox="0 0 32 32" width="32px" xmlns="http://www.w3.org/2000/svg" xmlns:sketch="http://www.bohemiancoding.com/sketch/ns" xmlns:xlink="http://www.w3.org/1999/xlink"><title/><desc/><defs/><g fill="none" fill-rule="evenodd" id="Page-1" stroke="none" stroke-width="1"><g fill="#929292" id="icon-30-book"><path d="M17,9 L25,9 L25,28 L11,28 L11,9 L17,9 L17,9 Z M26,29 L8.99420208,29 C7.34331197,29 6,27.6570978 6,26.0005439 L6,6.5 C6,5.10966206 7.115964,4 8.49257535,4 L26,4 L26,5 L25.4953156,5 C24.6771088,5 24,5.67157288 24,6.5 C24,7.33420277 24.6694756,8 25.4953156,8 L26,8 L26,29 L26,29 Z M10,28 L8.99508929,28 C7.8926228,28 7,27.1085295 7,26.008845 L7,8.50171426 C7.41635634,8.81463237 7.93324341,9 8.49257535,9 L10,9 L10,28 L10,28 Z M8.49336625,5 C7.66860284,5 7,5.66579723 7,6.5 C7,7.32842712 7.66725546,8 8.49336625,8 L23.5,8 C23.5,8 23,7.21048453 23,6.47355449 C23,5.73662445 23.5,5 23.5,5 L8.49336625,5 L8.49336625,5 Z" id="book"/></g></g></svg>